<?xml version="1.0" encoding="iso-8859-1"?>
<!-- Generator: Adobe Illustrator 19.0.0, SVG Export Plug-In . SVG Version: 6.00 Build 0)  -->
<svg version="1.1" id="Layer_1" xmlns="https://www.w3.org/2000/svg" xmlns:xlink="https://www.w3.org/1999/xlink" x="0px" y="0px"
	 viewBox="0 0 512 512" style="enable-background:new 0 0 512 512;" xml:space="preserve">
<path style="fill:#5CC4E0;" d="M256,256V8.017C256,3.589,252.411,0,247.983,0H8.017C3.589,0,0,3.589,0,8.017v495.967
	C0,508.411,3.589,512,8.017,512h495.967c4.427,0,8.017-3.589,8.017-8.017V264.017c0-4.427-3.589-8.017-8.017-8.017H256z"/>
<path style="fill:#FAEC8E;" d="M478.33,256H256.356H256v256h247.983c2.305,0,4.376-0.978,5.838-2.534
	c1.347-1.434,2.178-3.36,2.178-5.482V289.67L478.33,256z"/>
<path style="fill:#FBC96C;" d="M256.356,256H256v256h247.983c2.305,0,4.376-0.978,5.838-2.534L256.356,256z"/>
<path style="fill:#FFFFFF;" d="M486.347,289.67H512L478.33,256v25.653C478.33,286.081,481.919,289.67,486.347,289.67z"/>
<path style="fill:#FF675C;" d="M221.261,0H8.017C5.803,0,3.799,0.897,2.348,2.348C0.898,3.799,0,5.803,0,8.017V256h256V34.739
	L221.261,0z"/>
<path style="fill:#DB3D5A;" d="M0,8.017V256h256L2.348,2.348C0.898,3.799,0,5.803,0,8.017z"/>
<g>
	<path style="fill:#FFFFFF;" d="M229.278,34.739H256L221.261,0v26.722C221.261,31.15,224.85,34.739,229.278,34.739z"/>
	<path style="fill:#FFFFFF;" d="M104.217,452.142c-36.247,0-65.737-33.326-65.737-74.288s29.49-74.288,65.737-74.288
		c11.238,0,22.329,3.255,32.074,9.414c3.742,2.365,4.859,7.317,2.494,11.06c-2.365,3.743-7.318,4.858-11.06,2.494
		c-7.178-4.536-15.307-6.934-23.508-6.934c-27.408,0-49.704,26.132-49.704,58.255s22.296,58.255,49.704,58.255
		c8.202,0,16.331-2.398,23.508-6.933c3.743-2.367,8.694-1.25,11.06,2.494c2.365,3.743,1.248,8.694-2.494,11.06
		C126.546,448.887,115.455,452.142,104.217,452.142z"/>
	<path style="fill:#FFFFFF;" d="M185.453,452.142c-24.459,0-44.359-19.9-44.359-44.359c0-24.46,19.9-44.359,44.359-44.359
		s44.359,19.9,44.359,44.359C229.812,432.242,209.913,452.142,185.453,452.142z M185.453,379.457
		c-15.619,0-28.326,12.707-28.326,28.326c0,15.619,12.707,28.326,28.326,28.326s28.326-12.707,28.326-28.326
		C213.779,392.164,201.072,379.457,185.453,379.457z"/>
	<path style="fill:#FFFFFF;" d="M439.852,452.142c-2.086,0-4.137-0.814-5.672-2.347L311.048,326.66v117.465
		c0,4.428-3.588,8.017-8.017,8.017c-4.428,0-8.017-3.588-8.017-8.017V307.307c0-3.242,1.953-6.166,4.949-7.406
		c2.995-1.243,6.442-0.556,8.737,1.737l123.132,123.134V307.307c0-4.428,3.588-8.017,8.017-8.017s8.017,3.588,8.017,8.017v136.818
		c0,3.242-1.953,6.166-4.949,7.406C441.925,451.943,440.884,452.142,439.852,452.142z"/>
	<path style="fill:#FFFFFF;" d="M153.386,196.676h-13.361V67.34h13.361c4.428,0,8.017-3.588,8.017-8.017s-3.588-8.017-8.017-8.017
		H110.63c-4.428,0-8.017,3.588-8.017,8.017s3.588,8.017,8.017,8.017h13.361v129.336H110.63c-4.428,0-8.017,3.588-8.017,8.017
		s3.588,8.017,8.017,8.017h42.756c4.428,0,8.017-3.588,8.017-8.017S157.815,196.676,153.386,196.676z"/>
</g>
<g>
</g>
<g>
</g>
<g>
</g>
<g>
</g>
<g>
</g>
<g>
</g>
<g>
</g>
<g>
</g>
<g>
</g>
<g>
</g>
<g>
</g>
<g>
</g>
<g>
</g>
<g>
</g>
<g>
</g>
</svg>
